<?xml version="1.0" standalone="no"?>
<!DOCTYPE svg PUBLIC "-//W3C//DTD SVG 20010904//EN"
 "http://www.w3.org/TR/2001/REC-SVG-20010904/DTD/svg10.dtd">
<svg version="1.0" xmlns="http://www.w3.org/2000/svg"
 width="111.000000pt" height="111.000000pt" viewBox="0 0 111.000000 111.000000"
 preserveAspectRatio="xMidYMid meet">
<metadata>
Created by potrace 1.14, written by Peter Selinger 2001-2017
</metadata>
<g transform="translate(0.000000,111.000000) scale(0.100000,-0.100000)"
fill="#000000" stroke="none">
<path d="M380 1090 c-179 -61 -317 -209 -365 -390 -19 -71 -19 -210 0 -283 51
-197 228 -367 424 -408 87 -18 233 -7 315 25 165 63 290 197 340 365 24 82 22
254 -5 334 -56 166 -189 300 -354 357 -81 28 -275 28 -355 0z m261 -70 c141
-27 280 -131 338 -254 90 -191 57 -389 -89 -537 -146 -148 -379 -182 -563 -81
-118 64 -216 205 -237 345 -48 310 240 586 551 527z"/>
<path d="M230 560 l0 -231 42 3 41 3 -2 88 c-2 61 1 87 9 87 18 0 96 -89 122
-137 22 -41 25 -43 70 -43 27 0 48 4 48 8 0 19 -78 135 -122 182 -27 27 -48
52 -48 54 0 3 18 26 41 52 46 54 119 150 119 159 0 3 -21 5 -47 5 -48 0 -48 0
-110 -80 -35 -44 -68 -80 -74 -80 -6 0 -9 27 -8 78 l2 77 -41 3 -42 3 0 -231z"/>
<path d="M580 560 l0 -230 40 0 40 0 0 97 0 97 48 -47 c26 -26 61 -70 78 -97
28 -48 30 -50 76 -50 46 0 47 1 38 25 -16 43 -62 108 -114 163 -36 38 -47 57
-41 66 6 7 40 51 78 97 37 46 67 89 67 96 0 9 -15 13 -43 13 -40 0 -46 -4 -75
-42 -17 -24 -49 -63 -71 -88 l-40 -45 -1 88 0 87 -40 0 -40 0 0 -230z"/>
</g>
</svg>
